<mxfile host="Electron" agent="Mozilla/5.0 (X11; Linux x86_64) AppleWebKit/537.36 (KHTML, like Gecko) draw.io/26.1.1 Chrome/132.0.6834.210 Electron/34.3.3 Safari/537.36" version="26.1.1">
  <diagram name="Page-1" id="5rqxuEU24Q9RjIC_nrNp">
    <mxGraphModel dx="1305" dy="547" grid="1" gridSize="10" guides="1" tooltips="1" connect="1" arrows="1" fold="1" page="1" pageScale="1" pageWidth="1550" pageHeight="1100" math="0" shadow="0">
      <root>
        <mxCell id="0" />
        <mxCell id="1" parent="0" />
        <mxCell id="XftDI_xavtV7cQK9SFd--62" value="Internal network&lt;div&gt;&lt;br/&gt;&lt;/div&gt;" style="rounded=0;whiteSpace=wrap;html=1;dashed=1;fillColor=none;align=left;verticalAlign=top;" parent="1" vertex="1">
          <mxGeometry x="736" y="440" width="404" height="330" as="geometry" />
        </mxCell>
        <mxCell id="XftDI_xavtV7cQK9SFd--26" value="Example Node" style="whiteSpace=wrap;html=1;aspect=fixed;verticalAlign=top;align=left;" parent="1" vertex="1">
          <mxGeometry x="785" y="500" width="242" height="242" as="geometry" />
        </mxCell>
        <mxCell id="XftDI_xavtV7cQK9SFd--37" style="edgeStyle=orthogonalEdgeStyle;rounded=0;orthogonalLoop=1;jettySize=auto;html=1;entryX=0.5;entryY=0;entryDx=0;entryDy=0;exitX=0.5;exitY=1;exitDx=0;exitDy=0;" parent="1" source="XftDI_xavtV7cQK9SFd--1" target="XftDI_xavtV7cQK9SFd--34" edge="1">
          <mxGeometry relative="1" as="geometry">
            <Array as="points">
              <mxPoint x="906" y="570" />
              <mxPoint x="990" y="570" />
            </Array>
          </mxGeometry>
        </mxCell>
        <mxCell id="XftDI_xavtV7cQK9SFd--38" style="edgeStyle=orthogonalEdgeStyle;rounded=0;orthogonalLoop=1;jettySize=auto;html=1;entryX=0.5;entryY=0;entryDx=0;entryDy=0;" parent="1" source="XftDI_xavtV7cQK9SFd--1" target="XftDI_xavtV7cQK9SFd--33" edge="1">
          <mxGeometry relative="1" as="geometry" />
        </mxCell>
        <mxCell id="XftDI_xavtV7cQK9SFd--39" style="edgeStyle=orthogonalEdgeStyle;rounded=0;orthogonalLoop=1;jettySize=auto;html=1;entryX=0.5;entryY=0;entryDx=0;entryDy=0;" parent="1" source="XftDI_xavtV7cQK9SFd--1" target="XftDI_xavtV7cQK9SFd--32" edge="1">
          <mxGeometry relative="1" as="geometry">
            <Array as="points">
              <mxPoint x="906" y="570" />
              <mxPoint x="822" y="570" />
            </Array>
          </mxGeometry>
        </mxCell>
        <mxCell id="XftDI_xavtV7cQK9SFd--1" value="NodeManager" style="rounded=0;whiteSpace=wrap;html=1;" parent="1" vertex="1">
          <mxGeometry x="861" y="535" width="90" height="15" as="geometry" />
        </mxCell>
        <mxCell id="XftDI_xavtV7cQK9SFd--11" style="edgeStyle=orthogonalEdgeStyle;rounded=0;orthogonalLoop=1;jettySize=auto;html=1;" parent="1" source="XftDI_xavtV7cQK9SFd--6" target="XftDI_xavtV7cQK9SFd--1" edge="1">
          <mxGeometry relative="1" as="geometry" />
        </mxCell>
        <mxCell id="XftDI_xavtV7cQK9SFd--12" value="push state" style="edgeLabel;html=1;align=center;verticalAlign=middle;resizable=0;points=[];" parent="XftDI_xavtV7cQK9SFd--11" vertex="1" connectable="0">
          <mxGeometry x="-0.1645" y="2" relative="1" as="geometry">
            <mxPoint x="-2" y="28" as="offset" />
          </mxGeometry>
        </mxCell>
        <mxCell id="XftDI_xavtV7cQK9SFd--20" style="edgeStyle=orthogonalEdgeStyle;rounded=0;orthogonalLoop=1;jettySize=auto;html=1;exitX=0.5;exitY=1;exitDx=0;exitDy=0;" parent="1" source="XftDI_xavtV7cQK9SFd--6" target="XftDI_xavtV7cQK9SFd--17" edge="1">
          <mxGeometry relative="1" as="geometry" />
        </mxCell>
        <mxCell id="XftDI_xavtV7cQK9SFd--70" value="push state" style="edgeLabel;html=1;align=center;verticalAlign=middle;resizable=0;points=[];" parent="XftDI_xavtV7cQK9SFd--20" vertex="1" connectable="0">
          <mxGeometry x="-0.4523" y="-3" relative="1" as="geometry">
            <mxPoint x="7" as="offset" />
          </mxGeometry>
        </mxCell>
        <mxCell id="AdsSLZrIDyogifaCDy0S-5" style="edgeStyle=orthogonalEdgeStyle;rounded=0;orthogonalLoop=1;jettySize=auto;html=1;entryX=0.5;entryY=0;entryDx=0;entryDy=0;fontFamily=Helvetica;fontSize=12;fontColor=default;exitX=0.5;exitY=1;exitDx=0;exitDy=0;" edge="1" parent="1" source="XftDI_xavtV7cQK9SFd--6" target="AdsSLZrIDyogifaCDy0S-1">
          <mxGeometry relative="1" as="geometry" />
        </mxCell>
        <mxCell id="XftDI_xavtV7cQK9SFd--6" value="Provisioner Backend" style="rounded=1;whiteSpace=wrap;html=1;" parent="1" vertex="1">
          <mxGeometry x="846" y="370" width="120" height="30" as="geometry" />
        </mxCell>
        <mxCell id="XftDI_xavtV7cQK9SFd--7" value="Internal DB(s)" style="shape=cylinder3;whiteSpace=wrap;html=1;boundedLbl=1;backgroundOutline=1;size=15;" parent="1" vertex="1">
          <mxGeometry x="600" y="345" width="100" height="80" as="geometry" />
        </mxCell>
        <mxCell id="XftDI_xavtV7cQK9SFd--8" style="edgeStyle=orthogonalEdgeStyle;rounded=0;orthogonalLoop=1;jettySize=auto;html=1;entryX=1;entryY=0.5;entryDx=0;entryDy=0;entryPerimeter=0;" parent="1" source="XftDI_xavtV7cQK9SFd--6" target="XftDI_xavtV7cQK9SFd--7" edge="1">
          <mxGeometry relative="1" as="geometry" />
        </mxCell>
        <mxCell id="XftDI_xavtV7cQK9SFd--9" value="&lt;font style=&quot;font-size: 8px;&quot;&gt;Keep desired state of deployments&lt;br&gt;Index nodes and their capacity&lt;/font&gt;" style="edgeLabel;html=1;align=center;verticalAlign=middle;resizable=0;points=[];" parent="XftDI_xavtV7cQK9SFd--8" vertex="1" connectable="0">
          <mxGeometry x="-0.1991" relative="1" as="geometry">
            <mxPoint x="-10" as="offset" />
          </mxGeometry>
        </mxCell>
        <mxCell id="XftDI_xavtV7cQK9SFd--15" style="edgeStyle=orthogonalEdgeStyle;rounded=0;orthogonalLoop=1;jettySize=auto;html=1;" parent="1" source="XftDI_xavtV7cQK9SFd--14" target="XftDI_xavtV7cQK9SFd--6" edge="1">
          <mxGeometry relative="1" as="geometry" />
        </mxCell>
        <mxCell id="XftDI_xavtV7cQK9SFd--16" value="/provision" style="edgeLabel;html=1;align=center;verticalAlign=middle;resizable=0;points=[];" parent="XftDI_xavtV7cQK9SFd--15" vertex="1" connectable="0">
          <mxGeometry x="0.1382" y="-3" relative="1" as="geometry">
            <mxPoint x="-69" y="-3" as="offset" />
          </mxGeometry>
        </mxCell>
        <mxCell id="XftDI_xavtV7cQK9SFd--54" style="edgeStyle=orthogonalEdgeStyle;rounded=0;orthogonalLoop=1;jettySize=auto;html=1;" parent="1" source="XftDI_xavtV7cQK9SFd--14" target="XftDI_xavtV7cQK9SFd--53" edge="1">
          <mxGeometry relative="1" as="geometry" />
        </mxCell>
        <mxCell id="XftDI_xavtV7cQK9SFd--55" value="&quot;docker push&quot;" style="edgeLabel;html=1;align=center;verticalAlign=middle;resizable=0;points=[];" parent="XftDI_xavtV7cQK9SFd--54" vertex="1" connectable="0">
          <mxGeometry x="0.4753" y="5" relative="1" as="geometry">
            <mxPoint x="-5" y="26" as="offset" />
          </mxGeometry>
        </mxCell>
        <mxCell id="XftDI_xavtV7cQK9SFd--14" value="User" style="shape=umlActor;verticalLabelPosition=bottom;verticalAlign=top;html=1;outlineConnect=0;" parent="1" vertex="1">
          <mxGeometry x="640" y="260" width="30" height="60" as="geometry" />
        </mxCell>
        <mxCell id="XftDI_xavtV7cQK9SFd--41" style="edgeStyle=orthogonalEdgeStyle;rounded=1;orthogonalLoop=1;jettySize=auto;html=1;entryX=0.5;entryY=1;entryDx=0;entryDy=0;fontSize=11;strokeWidth=2;curved=0;" parent="1" source="XftDI_xavtV7cQK9SFd--17" target="XftDI_xavtV7cQK9SFd--27" edge="1">
          <mxGeometry relative="1" as="geometry">
            <Array as="points">
              <mxPoint x="1090" y="554" />
              <mxPoint x="1090" y="690" />
              <mxPoint x="990" y="690" />
            </Array>
          </mxGeometry>
        </mxCell>
        <mxCell id="XftDI_xavtV7cQK9SFd--43" style="edgeStyle=orthogonalEdgeStyle;rounded=1;orthogonalLoop=1;jettySize=auto;html=1;entryX=0.5;entryY=1;entryDx=0;entryDy=0;fontSize=11;strokeWidth=2;curved=0;" parent="1" source="XftDI_xavtV7cQK9SFd--17" target="XftDI_xavtV7cQK9SFd--29" edge="1">
          <mxGeometry relative="1" as="geometry">
            <Array as="points">
              <mxPoint x="1090" y="554" />
              <mxPoint x="1090" y="690" />
              <mxPoint x="906" y="690" />
            </Array>
          </mxGeometry>
        </mxCell>
        <mxCell id="XftDI_xavtV7cQK9SFd--44" style="edgeStyle=orthogonalEdgeStyle;rounded=1;orthogonalLoop=1;jettySize=auto;html=1;entryX=0.5;entryY=1;entryDx=0;entryDy=0;fontSize=11;strokeWidth=2;curved=0;" parent="1" source="XftDI_xavtV7cQK9SFd--17" target="XftDI_xavtV7cQK9SFd--28" edge="1">
          <mxGeometry relative="1" as="geometry">
            <Array as="points">
              <mxPoint x="1090" y="554" />
              <mxPoint x="1090" y="690" />
              <mxPoint x="822" y="690" />
            </Array>
          </mxGeometry>
        </mxCell>
        <mxCell id="XftDI_xavtV7cQK9SFd--50" value="Internal networking&lt;br&gt;Mby Wireguard or just NAT port&lt;span style=&quot;background-color: light-dark(#ffffff, var(--ge-dark-color, #121212)); color: light-dark(rgb(0, 0, 0), rgb(255, 255, 255));&quot;&gt;s?&lt;/span&gt;" style="edgeLabel;html=1;align=center;verticalAlign=middle;resizable=0;points=[];fontSize=8;" parent="XftDI_xavtV7cQK9SFd--44" vertex="1" connectable="0">
          <mxGeometry x="-0.5067" y="2" relative="1" as="geometry">
            <mxPoint x="-2" y="12" as="offset" />
          </mxGeometry>
        </mxCell>
        <mxCell id="XftDI_xavtV7cQK9SFd--17" value="Reverse Proxy&lt;div&gt;(L7 HTTP &amp;amp; L4 TCP)&lt;/div&gt;" style="rounded=0;whiteSpace=wrap;html=1;" parent="1" vertex="1">
          <mxGeometry x="1170" y="537.5" width="120" height="32.5" as="geometry" />
        </mxCell>
        <mxCell id="XftDI_xavtV7cQK9SFd--25" style="edgeStyle=orthogonalEdgeStyle;rounded=0;orthogonalLoop=1;jettySize=auto;html=1;entryX=1;entryY=0.5;entryDx=0;entryDy=0;strokeWidth=2;" parent="1" source="XftDI_xavtV7cQK9SFd--24" target="XftDI_xavtV7cQK9SFd--17" edge="1">
          <mxGeometry relative="1" as="geometry" />
        </mxCell>
        <mxCell id="XftDI_xavtV7cQK9SFd--46" value="Floating Public IP&lt;br&gt;HTTP/TCP" style="edgeLabel;html=1;align=center;verticalAlign=middle;resizable=0;points=[];fontSize=8;" parent="XftDI_xavtV7cQK9SFd--25" vertex="1" connectable="0">
          <mxGeometry x="-0.2914" y="2" relative="1" as="geometry">
            <mxPoint x="-29" y="-2" as="offset" />
          </mxGeometry>
        </mxCell>
        <mxCell id="AdsSLZrIDyogifaCDy0S-2" style="edgeStyle=orthogonalEdgeStyle;rounded=0;orthogonalLoop=1;jettySize=auto;html=1;entryX=1;entryY=0.5;entryDx=0;entryDy=0;fontFamily=Helvetica;fontSize=12;fontColor=default;" edge="1" parent="1" source="XftDI_xavtV7cQK9SFd--24" target="AdsSLZrIDyogifaCDy0S-1">
          <mxGeometry relative="1" as="geometry" />
        </mxCell>
        <mxCell id="AdsSLZrIDyogifaCDy0S-4" value="&amp;lt;name&amp;gt;.dplyed.io" style="edgeLabel;html=1;align=center;verticalAlign=middle;resizable=0;points=[];rounded=0;dashed=1;strokeColor=default;fontFamily=Helvetica;fontSize=12;fontColor=default;fillColor=none;" vertex="1" connectable="0" parent="AdsSLZrIDyogifaCDy0S-2">
          <mxGeometry x="0.1978" y="2" relative="1" as="geometry">
            <mxPoint y="10" as="offset" />
          </mxGeometry>
        </mxCell>
        <mxCell id="XftDI_xavtV7cQK9SFd--24" value="User&#39;s User" style="shape=umlActor;verticalLabelPosition=bottom;verticalAlign=top;html=1;outlineConnect=0;" parent="1" vertex="1">
          <mxGeometry x="1490" y="523.75" width="30" height="60" as="geometry" />
        </mxCell>
        <mxCell id="XftDI_xavtV7cQK9SFd--27" value="&lt;span style=&quot;font-size: 11px;&quot;&gt;MicroVM&lt;/span&gt;&lt;br style=&quot;font-size: 11px;&quot;&gt;&lt;span style=&quot;font-size: 11px;&quot;&gt;w. NodeAgent&lt;/span&gt;" style="shape=process;whiteSpace=wrap;html=1;backgroundOutline=1;" parent="1" vertex="1">
          <mxGeometry x="955" y="610" width="70" height="60" as="geometry" />
        </mxCell>
        <mxCell id="XftDI_xavtV7cQK9SFd--28" value="&lt;font style=&quot;font-size: 11px;&quot;&gt;MicroVM&lt;br&gt;w. NodeAgent&lt;/font&gt;" style="shape=process;whiteSpace=wrap;html=1;backgroundOutline=1;" parent="1" vertex="1">
          <mxGeometry x="787" y="610" width="70" height="60" as="geometry" />
        </mxCell>
        <mxCell id="XftDI_xavtV7cQK9SFd--29" value="&lt;span style=&quot;font-size: 11px;&quot;&gt;MicroVM&lt;/span&gt;&lt;br style=&quot;font-size: 11px;&quot;&gt;&lt;span style=&quot;font-size: 11px;&quot;&gt;w. NodeAgent&lt;/span&gt;" style="shape=process;whiteSpace=wrap;html=1;backgroundOutline=1;" parent="1" vertex="1">
          <mxGeometry x="871" y="610" width="70" height="60" as="geometry" />
        </mxCell>
        <mxCell id="XftDI_xavtV7cQK9SFd--32" value="Firecracker VMM" style="rounded=0;whiteSpace=wrap;html=1;fontSize=8;" parent="1" vertex="1">
          <mxGeometry x="788" y="595" width="68" height="10" as="geometry" />
        </mxCell>
        <mxCell id="XftDI_xavtV7cQK9SFd--33" value="Firecracker VMM" style="rounded=0;whiteSpace=wrap;html=1;fontSize=8;" parent="1" vertex="1">
          <mxGeometry x="872" y="595" width="68" height="10" as="geometry" />
        </mxCell>
        <mxCell id="XftDI_xavtV7cQK9SFd--34" value="Firecracker VMM" style="rounded=0;whiteSpace=wrap;html=1;fontSize=8;" parent="1" vertex="1">
          <mxGeometry x="956" y="595" width="68" height="10" as="geometry" />
        </mxCell>
        <mxCell id="XftDI_xavtV7cQK9SFd--48" value="&lt;h1 style=&quot;margin-top: 0px;&quot;&gt;/provision&lt;/h1&gt;&lt;p&gt;1. Find and reserve capacity for deployment on a node&lt;/p&gt;&lt;p&gt;2. Push state to node, starting the deployment&lt;/p&gt;&lt;p&gt;&lt;span style=&quot;background-color: transparent; color: light-dark(rgb(0, 0, 0), rgb(255, 255, 255));&quot;&gt;3. Push state to proxies, enabling external networking.&lt;/span&gt;&lt;/p&gt;&lt;p&gt;&lt;span style=&quot;background-color: transparent; color: light-dark(rgb(0, 0, 0), rgb(255, 255, 255));&quot;&gt;This is probably doable within a HTTP request for small deployments.&lt;br&gt;But longterm it probably needs to be a stateful process for very large deployments.&lt;/span&gt;&lt;/p&gt;" style="text;html=1;whiteSpace=wrap;overflow=hidden;rounded=0;fontSize=10;" parent="1" vertex="1">
          <mxGeometry x="966" y="250" width="369" height="150" as="geometry" />
        </mxCell>
        <mxCell id="XftDI_xavtV7cQK9SFd--56" style="edgeStyle=orthogonalEdgeStyle;rounded=0;orthogonalLoop=1;jettySize=auto;html=1;entryX=0;entryY=0.5;entryDx=0;entryDy=0;exitX=0.5;exitY=1;exitDx=0;exitDy=0;" parent="1" source="XftDI_xavtV7cQK9SFd--53" target="XftDI_xavtV7cQK9SFd--28" edge="1">
          <mxGeometry relative="1" as="geometry" />
        </mxCell>
        <mxCell id="XftDI_xavtV7cQK9SFd--59" value="Pulls images" style="edgeLabel;html=1;align=center;verticalAlign=middle;resizable=0;points=[];" parent="XftDI_xavtV7cQK9SFd--56" vertex="1" connectable="0">
          <mxGeometry x="0.0574" y="-5" relative="1" as="geometry">
            <mxPoint x="58" y="-5" as="offset" />
          </mxGeometry>
        </mxCell>
        <mxCell id="XftDI_xavtV7cQK9SFd--63" style="edgeStyle=orthogonalEdgeStyle;rounded=0;orthogonalLoop=1;jettySize=auto;html=1;" parent="1" source="XftDI_xavtV7cQK9SFd--53" target="XftDI_xavtV7cQK9SFd--7" edge="1">
          <mxGeometry relative="1" as="geometry" />
        </mxCell>
        <mxCell id="XftDI_xavtV7cQK9SFd--64" value="" style="edgeStyle=orthogonalEdgeStyle;rounded=0;orthogonalLoop=1;jettySize=auto;html=1;" parent="1" source="XftDI_xavtV7cQK9SFd--53" target="XftDI_xavtV7cQK9SFd--7" edge="1">
          <mxGeometry relative="1" as="geometry" />
        </mxCell>
        <mxCell id="XftDI_xavtV7cQK9SFd--53" value="Multitenant serverless&lt;br&gt;ContainerRegistry&lt;br&gt;(quite simple...)" style="rounded=1;whiteSpace=wrap;html=1;" parent="1" vertex="1">
          <mxGeometry x="440" y="355" width="120" height="60" as="geometry" />
        </mxCell>
        <mxCell id="XftDI_xavtV7cQK9SFd--60" value="&lt;h1 style=&quot;margin-top: 0px;&quot;&gt;&lt;span style=&quot;background-color: transparent; color: light-dark(rgb(0, 0, 0), rgb(255, 255, 255));&quot;&gt;MVP Architecture&lt;br&gt;&lt;span style=&quot;font-size: 12px; font-weight: 400;&quot;&gt;Features:&lt;br&gt;- Can push a container to a serverless CR&lt;br&gt;&lt;/span&gt;&lt;/span&gt;&lt;span style=&quot;font-size: 12px; font-weight: 400; background-color: transparent; color: light-dark(rgb(0, 0, 0), rgb(255, 255, 255));&quot;&gt;- Can call /provision which will find a node and spin up a VM which will pull and run the contanier&lt;br&gt;&lt;/span&gt;&lt;span style=&quot;font-size: 12px; font-weight: 400; background-color: transparent; color: light-dark(rgb(0, 0, 0), rgb(255, 255, 255));&quot;&gt;- A reverse proxy which can redirect TCP/HTTP traffic.&lt;br&gt;- Some monitoring tools. I.e SSH tunneling (through rproxy?) and logging&lt;/span&gt;&lt;/h1&gt;&lt;div&gt;&lt;span style=&quot;font-size: 12px; font-weight: 400; background-color: transparent; color: light-dark(rgb(0, 0, 0), rgb(255, 255, 255));&quot;&gt;Components to create:&lt;br&gt;- Multitenant CR&lt;/span&gt;&lt;/div&gt;&lt;div&gt;&lt;span style=&quot;font-size: 12px; font-weight: 400; background-color: transparent; color: light-dark(rgb(0, 0, 0), rgb(255, 255, 255));&quot;&gt;- NodeManager &amp;amp; NodeAgent&lt;br&gt;&lt;/span&gt;&lt;/div&gt;&lt;div&gt;&lt;span style=&quot;font-size: 12px; font-weight: 400; background-color: transparent; color: light-dark(rgb(0, 0, 0), rgb(255, 255, 255));&quot;&gt;- Reverse Proxy&lt;/span&gt;&lt;/div&gt;&lt;div&gt;&lt;span style=&quot;font-size: 12px; font-weight: 400; background-color: transparent; color: light-dark(rgb(0, 0, 0), rgb(255, 255, 255));&quot;&gt;- Provisioner Backend&lt;/span&gt;&lt;/div&gt;&lt;div&gt;&lt;span style=&quot;font-size: 12px; font-weight: 400; background-color: transparent; color: light-dark(rgb(0, 0, 0), rgb(255, 255, 255));&quot;&gt;- CLI and web frontend&lt;/span&gt;&lt;/div&gt;&lt;div&gt;&lt;span style=&quot;font-size: 12px; font-weight: 400; background-color: transparent; color: light-dark(rgb(0, 0, 0), rgb(255, 255, 255));&quot;&gt;- Some metrics handling to get proper billing...&lt;/span&gt;&lt;/div&gt;&lt;div&gt;&lt;span style=&quot;font-size: 12px; font-weight: 400; background-color: transparent; color: light-dark(rgb(0, 0, 0), rgb(255, 255, 255));&quot;&gt;&lt;br&gt;&lt;/span&gt;&lt;/div&gt;&lt;div&gt;&lt;span style=&quot;font-size: 12px; font-weight: 400; background-color: transparent; color: light-dark(rgb(0, 0, 0), rgb(255, 255, 255));&quot;&gt;&lt;br&gt;&lt;/span&gt;&lt;/div&gt;&lt;div&gt;&lt;span style=&quot;font-size: 12px; font-weight: 400; background-color: transparent; color: light-dark(rgb(0, 0, 0), rgb(255, 255, 255));&quot;&gt;&lt;br&gt;&lt;/span&gt;&lt;/div&gt;&lt;div&gt;&lt;span style=&quot;font-size: 12px; font-weight: 400; background-color: transparent; color: light-dark(rgb(0, 0, 0), rgb(255, 255, 255));&quot;&gt;Going beyond MVP?&lt;br&gt;- (Re)Scheduler, handle node failures/maintenence, rolling deployments etc.&lt;br&gt;- BLock volumes to support stateful workloads i.e databases&lt;br&gt;- Cronjobs?&lt;/span&gt;&lt;/div&gt;&lt;div&gt;- Managed DNS&lt;/div&gt;&lt;div&gt;&lt;span style=&quot;font-size: 12px; font-weight: 400; background-color: transparent; color: light-dark(rgb(0, 0, 0), rgb(255, 255, 255));&quot;&gt;&lt;br&gt;&lt;br&gt;&lt;/span&gt;&lt;/div&gt;" style="text;html=1;whiteSpace=wrap;overflow=hidden;rounded=0;" parent="1" vertex="1">
          <mxGeometry width="530" height="380" as="geometry" />
        </mxCell>
        <mxCell id="XftDI_xavtV7cQK9SFd--65" value="Object storage" style="shape=cylinder3;whiteSpace=wrap;html=1;boundedLbl=1;backgroundOutline=1;size=15;" parent="1" vertex="1">
          <mxGeometry x="370" y="415" width="60" height="75" as="geometry" />
        </mxCell>
        <mxCell id="XftDI_xavtV7cQK9SFd--68" style="edgeStyle=orthogonalEdgeStyle;rounded=0;orthogonalLoop=1;jettySize=auto;html=1;entryX=0.5;entryY=0;entryDx=0;entryDy=0;entryPerimeter=0;" parent="1" source="XftDI_xavtV7cQK9SFd--53" edge="1" target="XftDI_xavtV7cQK9SFd--65">
          <mxGeometry relative="1" as="geometry">
            <mxPoint x="379.9999999999998" y="395" as="targetPoint" />
          </mxGeometry>
        </mxCell>
        <mxCell id="AdsSLZrIDyogifaCDy0S-3" style="edgeStyle=orthogonalEdgeStyle;rounded=0;orthogonalLoop=1;jettySize=auto;html=1;entryX=1;entryY=0.5;entryDx=0;entryDy=0;fontFamily=Helvetica;fontSize=12;fontColor=default;" edge="1" parent="1" source="AdsSLZrIDyogifaCDy0S-1" target="XftDI_xavtV7cQK9SFd--17">
          <mxGeometry relative="1" as="geometry" />
        </mxCell>
        <mxCell id="AdsSLZrIDyogifaCDy0S-1" value="DNS Authority&lt;br&gt;(Provides some&amp;nbsp;&lt;span style=&quot;background-color: transparent; color: light-dark(rgb(0, 0, 0), rgb(255, 255, 255));&quot;&gt;LB)&lt;/span&gt;" style="rounded=1;whiteSpace=wrap;html=1;strokeColor=default;align=center;verticalAlign=middle;fontFamily=Helvetica;fontSize=12;fontColor=default;fillColor=none;" vertex="1" parent="1">
          <mxGeometry x="1330" y="440" width="120" height="60" as="geometry" />
        </mxCell>
      </root>
    </mxGraphModel>
  </diagram>
</mxfile>
